<?xml version="1.0" encoding="utf-8"?>
<!-- Generator: Adobe Illustrator 27.5.0, SVG Export Plug-In . SVG Version: 6.00 Build 0)  -->
<svg version="1.1" id="BASE" xmlns="http://www.w3.org/2000/svg" xmlns:xlink="http://www.w3.org/1999/xlink" x="0px" y="0px"
	 viewBox="0 0 2122 2122" style="enable-background:new 0 0 2122 2122;" xml:space="preserve">
<path style="fill:#FEDD39;" d="M1681.238,382.567c-163.523-149.766-381.391-241.09-620.529-241.09
	c-452.42,0-828.348,326.656-905.036,757.026c-9.366,52.589-14.244,106.836-14.244,162.157c0,507.644,411.54,919.183,919.28,919.183
	c507.644,0,919.184-411.54,919.184-919.183C1979.892,792.154,1864.762,550.577,1681.238,382.567z"/>
<path style="fill:#FFEE36;" d="M1674.188,1058.701c4.319,20.375,14.014,43.764,28.599,61.627
	c39.708-89.355,62.628-194.693,62.628-307.485c0-323.239-188.229-585.277-420.421-585.277
	c-107.794,0-206.112,56.477-280.522,149.334c-77.244-104.908-182.125-174.079-299.1-186.953
	c-193.209,65.484-357.583,193.498-469.038,359.957c-28.082,79.9-43.772,169.007-43.772,262.919
	c0,345.25,211.736,625.133,472.976,625.133c132.911,0,253.016-72.482,338.932-189.172c74.41,92.858,172.729,149.335,280.524,149.335
	c138.316,0,261.029-92.986,337.648-236.502c-24.951-29.662-40.483-71.756-23.452-104.878
	C1662.354,1050.587,1672.748,1051.912,1674.188,1058.701z"/>
<path style="fill:#CFCFCF;" d="M1287.366,326.583c-73.732,0-142.128,31.804-198.495,86.095
	c-11.964,11.522-23.383,24.057-34.199,37.515c-7.239-9.807-14.77-19.237-22.574-28.266
	c-69.116-79.969-159.627-128.434-258.702-128.434c-217.013,0-392.937,232.521-392.937,519.351
	c0,286.83,175.924,519.352,392.937,519.352c99.075,0,189.586-48.465,258.702-128.435c7.804-9.028,15.335-18.459,22.574-28.266
	c10.814,13.457,22.234,25.991,34.195,37.512c56.369,54.292,124.765,86.098,198.499,86.098c192.91,0,349.294-217.706,349.294-486.261
	C1636.66,544.29,1480.276,326.583,1287.366,326.583z"/>
<path style="fill:#FFFFFF;" d="M1270.902,344.58c-65.814,0-127.166,26.877-178.815,73.253
	c-12.166,10.924-23.793,22.93-34.814,35.922c-1.877,2.212-3.736,4.451-5.577,6.72c-0.858-1.077-1.72-2.147-2.586-3.212
	c-7.364-9.063-15.01-17.73-22.919-25.981c-62.839-65.557-142.253-104.698-228.601-104.698
	c-203.651,0-368.743,217.706-368.743,486.261c0,268.555,165.091,486.261,368.743,486.261c86.348,0,165.763-39.14,228.601-104.698
	c7.909-8.251,15.556-16.92,22.919-25.982c0.866-1.065,1.727-2.136,2.585-3.212c1.841,2.268,3.7,4.508,5.577,6.72
	c11.02,12.99,22.646,24.995,34.811,35.918c51.649,46.378,113.002,73.256,178.818,73.256c183.818,0,332.832-209.649,332.832-468.264
	C1603.734,554.229,1454.72,344.58,1270.902,344.58z"/>
<path style="fill:#0A101D;" d="M948.42,696.535l-0.246-0.263c-4.273-4.569-8.692-8.925-13.252-13.057
	c-34.449-31.226-76.792-49.634-122.568-49.634c-66.025,0-124.907,38.292-163.26,98.11c22.167,4.979,38.99,29.25,38.99,58.443
	c0,32.794-21.229,59.379-47.416,59.379c-12.23,0-23.378-5.8-31.788-15.322c-3.781,19.708-5.785,40.283-5.785,61.444
	c0,144.728,93.688,262.053,209.26,262.053c61.62,0,117.019-33.354,155.314-86.432c5.086-7.05,9.872-14.448,14.328-22.161
	c0.287-0.497,0.575-0.997,0.859-1.497c24.404-42.861,38.759-95.313,38.759-151.963C1021.614,815.964,993.223,744.598,948.42,696.535
	z"/>
<ellipse style="fill:#010209;" cx="812.354" cy="895.634" rx="104.63" ry="131.027"/>
<path style="fill:#0A101D;" d="M1292.287,633.581c-38.792,0-75.119,13.218-106.265,36.255
	c-10.494,7.762-20.401,16.639-29.615,26.501c-0.202,0.216-0.403,0.432-0.604,0.65c-9.749,10.514-18.716,22.133-26.776,34.705
	c16.432,3.691,29.925,17.984,35.808,37.024c0.042,0.138,0.084,0.275,0.126,0.414c1.972,6.531,3.056,13.609,3.056,21.005
	c0,5.499-0.6,10.822-1.717,15.875c0,0.005-0.001,0.008-0.002,0.013c-5.548,25.079-23.905,43.491-45.697,43.491
	c-12.231,0-23.379-5.8-31.789-15.322c-3.782,19.708-5.785,40.283-5.785,61.444c0,56.117,14.087,108.115,38.072,150.749
	c0.663,1.177,1.332,2.347,2.009,3.511c8.047,13.814,17.146,26.606,27.151,38.191c37.31,43.202,87.208,69.602,142.03,69.602
	c115.571,0,209.26-117.326,209.26-262.053S1407.858,633.581,1292.287,633.581z"/>
<path style="fill:#010209;" d="M1187.656,895.634c0,10.715,1.028,21.129,2.965,31.098c11.148,57.352,52.437,99.929,101.666,99.929
	c57.785,0,104.63-58.663,104.63-131.026s-46.845-131.027-104.63-131.027c-41.466,0-77.297,30.207-94.229,74.007
	C1191.393,855.854,1187.656,875.197,1187.656,895.634z"/>
<path style="fill:#FBCC3A;" d="M1682.077,383.354c-0.039,0.066-0.077,0.132-0.116,0.198
	c112.564,144.533,179.609,326.188,179.609,523.415c0,86.488-12.874,169.97-36.809,248.635c0.119-1.247,0.199-2.523,0.24-3.826
	c0.401-12.711-12.92-22.486-24.928-18.99c-21.023,6.12-39.011,18.777-60.418,13.538c-0.38-0.423-0.765-0.839-1.162-1.24
	c-2.4-2.43-6.51-3.689-10.168-3.146c-9.7-5.101-18.233-12.661-25.538-21.609c-14.586-17.863-24.28-41.252-28.599-61.627
	c-1.439-6.789-11.833-8.114-14.998-1.96c-17.03,33.122-1.499,75.216,23.452,104.878c7.484,8.896,15.814,16.674,24.368,22.755
	c-3.227,15.276-5.018,31.173-7.946,44.203c-12.719,56.606-26.819,113.9-54.362,165.349
	c-37.038,69.184-92.815,125.392-162.513,161.761c-32.275,16.842-66.816,30.129-102.071,39.212
	c-19.051,4.909-52.177,6.981-65.409,24.369c-0.405,0.225-0.81,0.448-1.219,0.667c-12.668,7.096-8.686,23.529,2.598,28.948
	c12.48,13.637,38.439,10.662,55.121,9.195c20.835-1.833,41.919-5.947,62.4-11.413c-125.126,72.051-270.254,113.268-425.004,113.268
	c-471.123,0-853.024-381.901-853.024-852.965c0-2.779,0-5.616,0.116-8.454c0.175-0.985,0.383-1.959,0.564-2.943
	c-0.007-0.003-0.014-0.006-0.021-0.008c-0.182,0.983-0.392,1.956-0.568,2.942c-9.366,52.589-14.244,106.836-14.244,162.157
	c0,507.644,411.54,919.183,919.28,919.183c507.644,0,919.184-411.54,919.184-919.183
	C1979.892,792.569,1865.108,551.333,1682.077,383.354z M1736.695,1351.516c12.887-40.306,19.948-82.248,19.921-123.959
	c-0.005-7.525-0.005-16.752-0.586-26.428c25.089,1.676,50.486-5.667,62.25-25.156
	C1797.697,1237.949,1770.195,1296.767,1736.695,1351.516z"/>
<path style="fill:#80363E;" d="M1800.073,1132.785c-21.023,6.12-39.011,18.777-60.418,13.538c-0.38-0.423-0.765-0.839-1.162-1.24
	c-2.4-2.43-6.51-3.689-10.168-3.146c-9.7-5.101-18.233-12.661-25.538-21.609c-14.586-17.863-24.28-41.252-28.599-61.627
	c-1.439-6.789-11.833-8.114-14.998-1.96c-17.03,33.122-1.499,75.216,23.452,104.878c7.484,8.896,15.814,16.674,24.368,22.755
	c-3.227,15.276-5.018,31.173-7.946,44.203c-12.719,56.606-26.819,113.9-54.362,165.349
	c-37.038,69.184-92.815,125.392-162.513,161.761c-32.275,16.842-66.816,30.129-102.071,39.212
	c-19.051,4.909-52.177,6.981-65.409,24.369c-0.405,0.225-0.81,0.448-1.219,0.667c-12.668,7.096-8.686,23.529,2.598,28.948
	c12.48,13.637,38.439,10.662,55.121,9.195c20.835-1.833,41.919-5.947,62.4-11.413c8.44-2.253,16.779-4.734,24.954-7.381
	c67.498-21.86,130.459-64.457,178.441-116.409c44.458-48.137,79.34-107.708,99.691-171.358
	c12.887-40.306,19.948-82.248,19.921-123.959c-0.005-7.525-0.005-16.752-0.586-26.428c25.089,1.676,50.486-5.667,62.25-25.156
	c3.452-5.718,5.729-12.483,6.482-20.372c0.119-1.247,0.199-2.523,0.24-3.826C1825.403,1139.065,1812.082,1129.289,1800.073,1132.785
	z"/>
</svg>
